<?xml version="1.0" encoding="utf-8"?>
<!-- Generator: Adobe Illustrator 19.2.1, SVG Export Plug-In . SVG Version: 6.00 Build 0)  -->
<svg version="1.1" baseProfile="tiny" id="Layer_1" xmlns="http://www.w3.org/2000/svg" xmlns:xlink="http://www.w3.org/1999/xlink"
	 x="0px" y="0px" viewBox="0 0 60 60" xml:space="preserve">
<circle fill="#6C9D99" cx="30.1" cy="29.8" r="28.6"/>
<path fill="#FFFFFF" d="M33.8,42c0-0.3,0-0.6-0.1-0.9c-0.1-0.2-0.1-0.6-0.2-0.8c-0.1-0.2-0.2-0.4-0.3-0.8c-0.2-0.2-0.3-0.4-0.4-0.7
	c-0.1-0.2-0.3-0.3-0.6-0.7c-0.2-0.2-0.4-0.4-0.6-0.6s-0.3-0.3-0.7-0.6c-0.3-0.2-0.6-0.4-0.7-0.4c-0.1,0-0.3-0.2-0.7-0.4
	c-0.3-0.2-0.6-0.4-0.7-0.4c-0.2,0-0.6,0-1.1,0c-0.8,0-1.6,0-2.2,0.1c-0.8,0.1-1.6,0.2-2.3,0.6c-0.8,0.2-1.5,0.6-2.1,1
	c-0.7,0.4-1.1,0.9-1.5,1.6c-0.3,0.7-0.6,1.5-0.6,2.3c0,1,0.2,1.9,0.8,2.6c0.6,0.8,1.2,1.3,2,1.8c0.8,0.4,1.7,0.8,2.6,1
	s1.8,0.3,2.7,0.3c0.9,0,1.7-0.1,2.5-0.2c0.8-0.2,1.5-0.4,2.1-0.9c0.7-0.3,1.2-0.9,1.6-1.6C33.5,43.7,33.8,42.9,33.8,42z M31.2,23.5
	c0-0.9-0.1-1.8-0.3-2.8s-0.6-1.9-1-2.8s-1-1.7-1.8-2.2c-0.8-0.6-1.7-0.9-2.6-0.9c-1.3,0-2.3,0.4-3.1,1.5c-0.8,1-1.1,2.1-1.1,3.6
	c0,0.7,0.1,1.3,0.2,2.1c0.1,0.8,0.4,1.5,0.8,2.2c0.3,0.8,0.8,1.5,1.2,2c0.4,0.6,1,1.1,1.7,1.5c0.7,0.3,1.3,0.6,2.1,0.6
	c1.3,0,2.3-0.4,3-1.3C30.9,26,31.2,24.9,31.2,23.5z M28.4,13.3h9.4L34.9,15H32c1,0.7,1.8,1.6,2.3,2.7c0.6,1.1,0.9,2.3,0.9,3.6
	c0,1-0.1,2-0.4,2.8c-0.3,0.8-0.8,1.5-1.2,2c-0.4,0.4-0.9,1-1.5,1.3c-0.4,0.4-0.9,0.9-1.2,1.3c-0.3,0.4-0.4,0.9-0.4,1.5
	c0,0.3,0.1,0.8,0.3,1.1c0.2,0.3,0.6,0.7,0.9,1c0.3,0.3,0.8,0.7,1.2,1s0.9,0.8,1.3,1.2s0.9,0.9,1.2,1.5c0.3,0.6,0.7,1.1,0.9,1.8
	c0.2,0.7,0.3,1.5,0.3,2.2c0,2.3-1,4.4-3,6c-2.1,1.9-5.1,2.8-9.1,2.8c-0.9,0-1.7-0.1-2.6-0.2c-0.9-0.1-1.8-0.3-2.6-0.7
	c-0.9-0.3-1.7-0.8-2.3-1.2c-0.7-0.4-1.2-1.1-1.7-1.9c-0.3-0.7-0.6-1.5-0.6-2.5c0-0.9,0.2-1.8,0.8-2.9c0.4-0.9,1.1-1.7,2-2.3
	s2-1.2,3.1-1.6s2.2-0.6,3.4-0.8c1-0.1,2.1-0.2,3.2-0.3c-0.9-1.2-1.3-2.2-1.3-3.2c0-0.2,0-0.3,0-0.6c0-0.1,0.1-0.3,0.1-0.4
	c0-0.1,0.1-0.2,0.2-0.4c0.1-0.2,0.1-0.3,0.1-0.4c-0.6,0.1-1.1,0.1-1.5,0.1c-2.1,0-3.9-0.7-5.5-2.1c-1.6-1.5-2.2-3.1-2.2-5.3
	c0-2,0.7-3.8,2-5.4c1.3-1.5,3-2.5,5-2.9C25.7,13.4,27.1,13.3,28.4,13.3z M50.6,18.8v2.8h-5.5V27h-2.8v-5.5h-5.5v-2.8h5.5v-5.5h2.8
	v5.5H50.6z"/>
</svg>
