<?xml version="1.0" encoding="utf-8"?>
<!-- Generator: Adobe Illustrator 19.2.1, SVG Export Plug-In . SVG Version: 6.00 Build 0)  -->
<svg version="1.1" baseProfile="tiny" id="Layer_1" xmlns="http://www.w3.org/2000/svg" xmlns:xlink="http://www.w3.org/1999/xlink"
	 x="0px" y="0px" viewBox="0 0 60 60" xml:space="preserve">
<circle fill="#6C9D99" cx="29.9" cy="30" r="28.3"/>
<path fill="#FFFFFF" d="M47.6,20.3c-1.3,0.6-2.7,1-4.2,1.1c1.6-0.9,2.7-2.3,3.2-4c-1.4,0.9-3,1.4-4.7,1.8c-1.2-1.4-3.2-2.3-5.2-2.3
	c-4,0-7.3,3.2-7.3,7.3c0,0.6,0.1,1.1,0.2,1.7c-6.1-0.3-11.4-3.2-15.1-7.6c-0.7,1.1-1,2.3-1,3.7c0,2.5,1.3,4.8,3.2,6.1
	c-1.2,0-2.3-0.3-3.3-0.9v0.1c0,3.5,2.5,6.4,5.9,7.1c-0.7,0.1-1.2,0.2-1.9,0.2c-0.4,0-0.9,0-1.3-0.1c0.9,2.9,3.7,5,6.8,5.1
	c-2.4,2-5.7,3.1-9.1,3.1c-0.6,0-1.2,0-1.8-0.1c3.2,2.1,7.1,3.3,11.2,3.3c13.4,0,20.7-11.1,20.7-20.7c0-0.3,0-0.7,0-0.9
	C45.3,23.1,46.6,21.8,47.6,20.3z"/>
</svg>
